<svg width="31" height="32" viewBox="0 0 31 32" fill="none" xmlns="http://www.w3.org/2000/svg">
<rect y="0.5" width="31" height="31" rx="15.5" fill="#3C7AFF"/>
<path d="M11.2131 22V20.7273L15.1506 16.6477C15.571 16.2045 15.9176 15.8163 16.1903 15.483C16.4669 15.1458 16.6733 14.8258 16.8097 14.5227C16.946 14.2197 17.0142 13.8977 17.0142 13.5568C17.0142 13.1705 16.9233 12.8371 16.7415 12.5568C16.5597 12.2727 16.3116 12.0549 15.9972 11.9034C15.6828 11.7481 15.3286 11.6705 14.9347 11.6705C14.518 11.6705 14.1544 11.7557 13.8438 11.9261C13.5331 12.0966 13.2945 12.3371 13.1278 12.6477C12.9612 12.9583 12.8778 13.322 12.8778 13.7386H11.2017C11.2017 13.0303 11.3646 12.411 11.6903 11.8807C12.0161 11.3504 12.4631 10.9394 13.0312 10.6477C13.5994 10.3523 14.2453 10.2045 14.9688 10.2045C15.6998 10.2045 16.3438 10.3504 16.9006 10.642C17.4612 10.9299 17.8987 11.3239 18.2131 11.8239C18.5275 12.3201 18.6847 12.8807 18.6847 13.5057C18.6847 13.9375 18.6032 14.3598 18.4403 14.7727C18.2813 15.1856 18.0028 15.6458 17.6051 16.1534C17.2074 16.6572 16.6544 17.2689 15.946 17.9886L13.6335 20.4091V20.4943H18.8722V22H11.2131Z" fill="white"/>
</svg>
