<svg width="31" height="32" viewBox="0 0 31 32" fill="none" xmlns="http://www.w3.org/2000/svg">
<rect y="0.5" width="31" height="31" rx="15.5" fill="#3C7AFF"/>
<path d="M15.5142 22.1591C14.7339 22.1591 14.0369 22.0246 13.4233 21.7557C12.8134 21.4867 12.3305 21.1136 11.9744 20.6364C11.6222 20.1553 11.4328 19.5985 11.4062 18.9659H13.1903C13.2131 19.3106 13.3286 19.6098 13.5369 19.8636C13.7491 20.1136 14.0256 20.3068 14.3665 20.4432C14.7074 20.5795 15.0862 20.6477 15.5028 20.6477C15.9612 20.6477 16.3665 20.5682 16.7188 20.4091C17.0748 20.25 17.3532 20.0284 17.554 19.7443C17.7547 19.4564 17.8551 19.125 17.8551 18.75C17.8551 18.3598 17.7547 18.017 17.554 17.7216C17.357 17.4223 17.0672 17.1875 16.6847 17.017C16.3059 16.8466 15.8475 16.7614 15.3097 16.7614H14.3267V15.3295H15.3097C15.7415 15.3295 16.1203 15.2519 16.446 15.0966C16.7756 14.9413 17.0331 14.7254 17.2188 14.4489C17.4044 14.1686 17.4972 13.8409 17.4972 13.4659C17.4972 13.1061 17.4157 12.7936 17.2528 12.5284C17.0938 12.2595 16.8665 12.0492 16.571 11.8977C16.2794 11.7462 15.9347 11.6705 15.5369 11.6705C15.1581 11.6705 14.804 11.7405 14.4744 11.8807C14.1487 12.017 13.8835 12.214 13.679 12.4716C13.4744 12.7254 13.3646 13.0303 13.3494 13.3864H11.6506C11.6695 12.7576 11.8551 12.2045 12.2074 11.7273C12.5634 11.25 13.0331 10.8769 13.6165 10.608C14.1998 10.339 14.8475 10.2045 15.5597 10.2045C16.3059 10.2045 16.9498 10.3504 17.4915 10.642C18.0369 10.9299 18.4574 11.3144 18.7528 11.7955C19.0521 12.2765 19.1998 12.803 19.196 13.375C19.1998 14.0265 19.018 14.5795 18.6506 15.0341C18.2869 15.4886 17.8021 15.7936 17.196 15.9489V16.0398C17.9688 16.1572 18.5672 16.464 18.9915 16.9602C19.4195 17.4564 19.6316 18.072 19.6278 18.8068C19.6316 19.447 19.4536 20.0208 19.0938 20.5284C18.7377 21.036 18.2509 21.4356 17.6335 21.7273C17.0161 22.0152 16.3097 22.1591 15.5142 22.1591Z" fill="white"/>
</svg>
