<svg width="32" height="32" viewBox="0 0 32 32" fill="none" xmlns="http://www.w3.org/2000/svg">
<g id="fluent:mail-20-regular">
<path id="Vector" d="M24.8 6.40039C25.8608 6.40039 26.8782 6.82182 27.6284 7.57196C28.3785 8.32211 28.8 9.33952 28.8 10.4004V23.2004C28.8 24.2613 28.3785 25.2787 27.6284 26.0288C26.8782 26.779 25.8608 27.2004 24.8 27.2004H7.19995C6.13909 27.2004 5.12167 26.779 4.37152 26.0288C3.62138 25.2787 3.19995 24.2613 3.19995 23.2004V10.4004C3.19995 9.33952 3.62138 8.32211 4.37152 7.57196C5.12167 6.82182 6.13909 6.40039 7.19995 6.40039H24.8ZM27.2 12.738L16.4064 19.09C16.3043 19.1499 16.1902 19.1864 16.0724 19.1969C15.9545 19.2075 15.8358 19.1917 15.7248 19.1508L15.5936 19.09L4.79995 12.7412V23.2004C4.79995 23.8369 5.05281 24.4474 5.5029 24.8974C5.95298 25.3475 6.56343 25.6004 7.19995 25.6004H24.8C25.4365 25.6004 26.0469 25.3475 26.497 24.8974C26.9471 24.4474 27.2 23.8369 27.2 23.2004V12.738ZM24.8 8.00039H7.19995C6.56343 8.00039 5.95298 8.25325 5.5029 8.70333C5.05281 9.15342 4.79995 9.76387 4.79995 10.4004V10.8836L16 17.4724L27.2 10.8804V10.4004C27.2 9.76387 26.9471 9.15342 26.497 8.70333C26.0469 8.25325 25.4365 8.00039 24.8 8.00039Z" fill="white"/>
</g>
</svg>
