<svg width="32" height="32" viewBox="0 0 32 32" fill="none" xmlns="http://www.w3.org/2000/svg">
<g id="ion:call-outline">
<path id="Vector" d="M28.1875 23.3752C27.195 22.3752 24.7912 20.9159 23.625 20.3277C22.1062 19.5627 21.9812 19.5002 20.7875 20.3871C19.9912 20.979 19.4619 21.5077 18.53 21.309C17.5981 21.1102 15.5731 19.9896 13.8 18.2221C12.0269 16.4546 10.8412 14.3709 10.6419 13.4421C10.4425 12.5134 10.98 11.9902 11.5662 11.1921C12.3925 10.0671 12.33 9.87962 11.6237 8.36087C11.0731 7.17962 9.57124 4.79837 8.56749 3.81087C7.49374 2.75025 7.49374 2.93775 6.80187 3.22525C6.2386 3.46224 5.69822 3.75032 5.18749 4.08587C4.18749 4.75025 3.63249 5.30212 3.24437 6.1315C2.85624 6.96087 2.68187 8.90525 4.68624 12.5465C6.69062 16.1877 8.09687 18.0496 11.0075 20.9521C13.9181 23.8546 16.1562 25.4152 19.4281 27.2502C23.4756 29.5171 25.0281 29.0752 25.86 28.6877C26.6919 28.3002 27.2462 27.7502 27.9119 26.7502C28.2483 26.2404 28.537 25.7006 28.7744 25.1377C29.0625 24.4484 29.25 24.4484 28.1875 23.3752Z" stroke="white" stroke-miterlimit="10"/>
</g>
</svg>
