<svg width="139" height="31" viewBox="0 0 139 31" fill="none" xmlns="http://www.w3.org/2000/svg">
<g id="logo123 1" clip-path="url(#clip0_330_172)">
<g id="Layer_x0020_1">
<path id="Vector" fill-rule="evenodd" clip-rule="evenodd" d="M77.1504 6.76592C77.1504 6.76592 75.2175 3.5859 70.474 1.32528C67.1521 -0.258006 63.8825 -0.148192 62.0328 0.259659C59.1156 0.902806 56.6788 2.33345 56.6788 2.33345C56.6788 2.33345 56.956 3.47128 58.5794 3.12666C60.4098 2.73796 63.9305 1.18343 67.2195 2.49396C69.1035 3.24462 69.7682 6.14255 65.9046 5.60914C64.433 5.44912 63.3738 6.26538 63.6697 7.15288C63.8017 7.54771 64.1562 7.13192 65.5983 7.42181C65.9596 7.4945 68.0576 8.07979 68.4894 8.20896C69.6736 8.56298 70.297 8.80608 71.8126 8.5478C74.3737 8.11168 75.8305 6.49601 77.1505 6.76585L77.1504 6.76592Z" fill="url(#paint0_linear_330_172)"/>
<path id="Vector_2" fill-rule="evenodd" clip-rule="evenodd" d="M67.6729 3.12677C67.5028 2.99377 67.3076 2.87734 67.0969 2.78981C66.2784 2.44978 65.4015 2.28231 64.4163 2.27792C62.7746 2.2704 61.2087 2.72512 59.9504 3.09049C59.4522 3.23498 59.0219 3.35998 58.646 3.43992C58.4166 3.48859 58.1977 3.51276 57.9948 3.51185C57.992 3.51185 57.989 3.51171 57.9863 3.51171C58.1493 3.80258 58.6041 4.32999 59.7206 4.18835C61.317 3.986 62.8757 3.23603 65.0868 3.02845C65.9827 2.9444 66.8889 3.01069 67.6729 3.12677Z" fill="url(#paint1_linear_330_172)"/>
<path id="Vector_3" fill-rule="evenodd" clip-rule="evenodd" d="M66.9425 4.06261C66.1707 4.05913 65.4528 4.13928 65.1816 4.19053C64.5414 4.31162 63.9414 4.50639 63.3615 4.69475C62.7088 4.90686 62.092 5.10713 61.4714 5.18665C61.6679 5.44583 62.0883 5.77005 62.9352 5.66268C64.2613 5.49465 65.6208 4.17772 68.2401 4.51175C68.2803 4.44901 68.3082 4.38258 68.3223 4.31218C68.3301 4.27367 68.3326 4.23377 68.3329 4.19331C67.9608 4.11052 67.4886 4.06505 66.9426 4.06261H66.9425Z" fill="url(#paint2_linear_330_172)"/>
<path id="Vector_4" fill-rule="evenodd" clip-rule="evenodd" d="M65.9694 3.31063C65.675 3.30938 65.3881 3.32157 65.1167 3.34705C63.8965 3.4616 62.8949 3.74098 61.9263 4.01109C61.2345 4.20405 60.5784 4.38586 59.9128 4.48377C60.171 4.7339 60.6299 4.97128 61.4231 4.87073C62.5585 4.72694 63.739 4.13803 65.122 3.87635C65.5577 3.79404 67.1149 3.63632 68.2609 3.85142C68.2145 3.73917 68.1467 3.62601 68.0622 3.51592C67.4428 3.40401 66.7162 3.31412 65.9694 3.31063Z" fill="url(#paint3_linear_330_172)"/>
<path id="Vector_5" fill-rule="evenodd" clip-rule="evenodd" d="M48.8472 6.75781C48.8472 6.75781 50.7803 9.93768 55.524 12.1984C58.8455 13.7816 62.1152 13.6719 63.9647 13.2641C66.8821 12.6208 69.3191 11.1902 69.3191 11.1902C69.3191 11.1902 69.0418 10.0524 67.4182 10.3971C65.5881 10.7858 62.0673 12.3402 58.7782 11.0298C56.8944 10.2792 56.2295 7.38111 60.0934 7.91444C61.5648 8.07446 62.6241 7.2582 62.328 6.37092C62.1962 5.97595 61.8416 6.39181 60.3994 6.10185C60.0385 6.02915 57.9404 5.44387 57.5084 5.3147C56.3241 4.96054 55.7008 4.71772 54.1853 4.97585C51.6241 5.41212 50.1674 7.02771 48.8472 6.75781Z" fill="url(#paint4_linear_330_172)"/>
<path id="Vector_6" fill-rule="evenodd" clip-rule="evenodd" d="M58.3248 10.3974C58.4951 10.5305 58.6902 10.6468 58.9009 10.7345C59.7195 11.0743 60.5965 11.2417 61.5814 11.2462C63.2232 11.2537 64.7892 10.799 66.0474 10.4338C66.5456 10.2889 66.9758 10.1641 67.3519 10.0843C67.5811 10.0356 67.8002 10.0114 68.0028 10.0123C68.0058 10.0123 68.0086 10.0125 68.0117 10.0127C67.8484 9.72175 67.3938 9.19406 66.2772 9.3357C64.681 9.53792 63.122 10.2881 60.911 10.4957C60.0151 10.5797 59.109 10.5133 58.3248 10.3974Z" fill="url(#paint5_linear_330_172)"/>
<path id="Vector_7" fill-rule="evenodd" clip-rule="evenodd" d="M59.0553 9.46109C59.8272 9.46458 60.545 9.38456 60.8163 9.33338C61.4565 9.21208 62.0562 9.01724 62.6363 8.82867C63.2891 8.61677 63.9057 8.41664 64.5264 8.33677C64.33 8.0778 63.9097 7.75358 63.0627 7.86096C61.7365 8.02899 60.3769 9.34599 57.7578 9.01188C57.7175 9.07462 57.6894 9.14119 57.6755 9.21145C57.6677 9.2501 57.6651 9.28986 57.6648 9.33018C58.0371 9.41312 58.509 9.45845 59.0553 9.46095V9.46109Z" fill="url(#paint6_linear_330_172)"/>
<path id="Vector_8" fill-rule="evenodd" clip-rule="evenodd" d="M60.0285 10.2131C60.3229 10.2145 60.6098 10.2022 60.8811 10.1767C62.1015 10.0622 63.103 9.78294 64.0715 9.51269C64.7633 9.31973 65.4194 9.13798 66.0849 9.04001C65.8269 8.78974 65.3681 8.5525 64.5746 8.65305C63.4395 8.79698 62.2591 9.38581 60.8758 9.64736C60.4402 9.72967 58.883 9.88767 57.7371 9.6725C57.7834 9.78454 57.8512 9.89784 57.9355 10.008C58.5551 10.1198 59.2817 10.2097 60.0285 10.2131H60.0285Z" fill="url(#paint7_linear_330_172)"/>
<path id="Vector_9" d="M14.9976 25.5345C13.9912 27.7681 12.1257 29.0691 9.8674 29.0691C6.35739 29.0691 3.65724 26.0254 3.65724 22.0735C3.65724 18.1951 6.08728 15.5442 9.59743 15.5442C11.9539 15.5442 13.6966 16.9187 14.4821 19.3489H15.4394L15.2185 15.0534H14.6048C14.4575 15.2251 14.3102 15.2987 14.1139 15.2987C13.6229 15.2987 11.9539 14.2924 9.40099 14.2924C4.14823 14.2924 -0.00012207 17.827 -0.00012207 22.3435C-0.00012207 26.7863 3.9027 30.2718 8.93465 30.2718C10.7756 30.2718 12.0028 29.83 13.1566 29.83C13.7211 29.83 14.212 29.8792 14.6048 30.0019C15.1939 28.7254 15.783 26.8354 15.9793 25.5345H14.9976ZM21.6986 13.5069H21.2568L17.0104 14.7341V15.446L18.0658 15.8387C18.6305 16.035 18.7041 16.2314 18.7041 17.3115V27.4245C18.7041 28.6763 18.3603 29.1427 17.3294 29.1427H17.084V29.9281H23.1714V29.1427C22.0423 29.1427 21.6986 28.578 21.6986 27.4245V13.5069ZM33.7631 26.6145C32.5685 27.8663 31.6889 28.3818 30.7807 28.3818C29.3325 28.3818 27.9578 26.8354 27.7615 24.7981H34.5485V24.0862C33.6894 23.6443 34.3766 22.2698 32.9325 20.8216C32.1757 20.0607 31.1488 19.6434 29.848 19.6434C26.7797 19.6434 24.5951 21.9262 24.5951 25.1663C24.5951 28.1363 26.4114 30.1982 29.087 30.1982C30.977 30.1982 32.9571 29.0199 34.3276 27.0809L33.7631 26.6145ZM27.6878 23.8408C27.516 22.098 28.4242 20.797 29.4306 20.797C30.4861 20.797 31.1488 21.9507 31.1734 23.8408H27.6878ZM46.2691 28.1118C45.9255 28.3571 45.8028 28.4063 45.6064 28.4063C45.2382 28.4063 45.0665 28.1362 45.0665 27.2772V22.638C45.0665 20.3306 42.2682 19.6434 41.0655 19.6434C39.8627 19.6434 37.85 20.2815 37.0154 21.1162C36.3772 21.7543 36.279 22.4661 36.4999 23.4726L39.2491 22.5153C39.0527 21.2389 39.6664 20.6253 40.5254 20.6253C41.4091 20.6253 42.0718 21.3125 42.0718 22.2699V23.1781C40.1572 24.749 38.169 24.5036 37.0154 25.6573C36.5981 26.0745 36.2544 26.8355 36.2544 27.6209C36.2544 29.1919 37.3589 30.1982 39.1018 30.1982C40.4763 30.1982 41.1391 29.6091 42.121 28.6518C42.2683 29.5847 42.931 30.1738 43.8391 30.1738C44.6491 30.1738 45.8765 29.5355 46.6374 28.701L46.2691 28.1118ZM42.0717 27.7926C41.3599 28.4799 40.8445 28.8236 40.4273 28.8236C39.6909 28.8236 39.1999 28.1608 39.1999 27.1299C39.1999 25.1417 40.8935 25.3136 42.0717 24.2826V27.7926ZM59.2294 23.8652C59.2294 20.9197 58.444 19.6434 56.6521 19.6434C55.4739 19.6434 53.9029 20.3798 52.1111 21.558V19.3734H51.6447L47.4473 20.797V21.3861L47.9628 21.5334C48.8219 21.779 49.1164 22.098 49.1164 22.638V27.4245C49.1164 28.7009 48.7483 29.1427 47.7173 29.1427H47.57V29.9281H53.7802V29.1427H53.5593C52.5775 29.1427 52.1111 28.6763 52.1111 27.5717V22.589C53.1421 21.877 53.9521 21.5088 54.7129 21.5088C55.6947 21.5088 56.2348 22.2698 56.2348 24.2334V26.3689C56.2348 28.3817 55.8421 29.0691 54.8357 29.1427V29.9281H60.6286V29.1427C59.6713 29.1427 59.2295 28.8972 59.2295 27.6944L59.2294 23.8652ZM71.3551 29.8791H71.9934C72.1161 29.609 72.288 29.4863 72.5088 29.4863C72.9507 29.4863 74.7424 30.2718 76.7062 30.2718C79.6272 30.2718 81.9345 28.259 81.9345 25.7062C81.9345 24.528 81.5418 23.4726 80.5354 22.4661C77.7862 19.7171 73.7116 19.2997 73.7116 17.0415C73.7116 16.0842 74.7425 15.3478 76.1172 15.3478C78.0072 15.3478 79.5782 16.6488 80.1181 18.637H81.1L80.6335 14.6605H80.1181C79.8972 14.8814 79.7499 14.9305 79.5782 14.9305C79.21 14.9305 77.7372 14.2924 75.8471 14.2924C72.9261 14.2924 70.8643 15.937 70.8643 18.2934C70.8643 23.1535 78.7435 23.0308 78.7435 26.6881C78.7435 28.0627 77.5163 29.0936 75.8962 29.0936C73.957 29.0936 72.5089 27.8418 71.6988 25.4117H70.7416L71.3551 29.8791ZM87.9238 13.5068H87.482L83.2356 14.7341V15.4459L84.291 15.8386C84.8556 16.0349 84.9292 16.2314 84.9292 17.3114V27.4244C84.9292 28.6762 84.5855 29.1426 83.5546 29.1426H83.3092V29.928H89.3966V29.1426C88.2675 29.1426 87.9238 28.578 87.9238 27.4244V13.5068ZM100.737 28.1118C100.393 28.3571 100.271 28.4063 100.074 28.4063C99.7059 28.4063 99.5342 28.1362 99.5342 27.2772V22.638C99.5342 20.3306 96.7359 19.6434 95.5331 19.6434C94.3303 19.6434 92.3177 20.2815 91.4831 21.1162C90.8449 21.7543 90.7467 22.4661 90.9676 23.4726L93.7168 22.5153C93.5204 21.2389 94.134 20.6253 94.9931 20.6253C95.8768 20.6253 96.5395 21.3125 96.5395 22.2699V23.1781C94.6249 24.749 92.6367 24.5036 91.4831 25.6573C91.0658 26.0745 90.7221 26.8355 90.7221 27.6209C90.7221 29.1919 91.8266 30.1982 93.5695 30.1982C94.944 30.1982 95.6068 29.6091 96.5887 28.6518C96.736 29.5847 97.3987 30.1738 98.3068 30.1738C99.1168 30.1738 100.344 29.5355 101.105 28.701L100.737 28.1118ZM96.5395 27.7926C95.8276 28.4799 95.3122 28.8236 94.895 28.8236C94.1586 28.8236 93.6676 28.1608 93.6676 27.1299C93.6676 25.1417 95.3612 25.3136 96.5395 24.2826V27.7926ZM106.432 21.2635H109.279L109.647 19.9134H106.432V16.8451H105.72C105.278 18.2197 103.609 20.0116 102.136 20.6252V21.2635H103.437V27.1545C103.437 29.2654 104.541 30.1981 106.211 30.1981C107.561 30.1981 109.033 29.29 109.77 27.9645L109.426 27.2772C108.714 28.1363 108.15 28.5044 107.561 28.5044C106.849 28.5044 106.432 28.1118 106.432 27.2035V21.2635ZM120.19 26.6145C118.995 27.8663 118.115 28.3818 117.207 28.3818C115.759 28.3818 114.384 26.8354 114.188 24.7981H120.975V24.0862C120.116 23.6443 120.803 22.2698 119.359 20.8216C118.602 20.0607 117.575 19.6434 116.274 19.6434C113.206 19.6434 111.022 21.9262 111.022 25.1663C111.022 28.1363 112.838 30.1982 115.514 30.1982C117.404 30.1982 119.384 29.0199 120.754 27.0809L120.19 26.6145ZM114.114 23.8408C113.943 22.098 114.851 20.797 115.857 20.797C116.913 20.797 117.575 21.9507 117.6 23.8408H114.114ZM139 25.019H138.067C137.404 27.7927 136.938 28.5781 135.146 28.5781H127.635L138.533 16.0596V14.6605H124.342L124.17 18.7842H125.107C125.279 16.6733 126.039 16.0106 127.463 16.0106H134.066L123.164 28.5781V29.9282H138.705L139 25.019Z" fill="white"/>
</g>
</g>
<defs>
<linearGradient id="paint0_linear_330_172" x1="65.63" y1="2.98663" x2="71.7672" y2="10.8335" gradientUnits="userSpaceOnUse">
<stop stop-color="#53AAA4"/>
<stop offset="0.980392" stop-color="#538CAA"/>
<stop offset="1" stop-color="#0067E0"/>
</linearGradient>
<linearGradient id="paint1_linear_330_172" x1="57.9875" y1="3.17677" x2="67.6724" y2="3.21758" gradientUnits="userSpaceOnUse">
<stop stop-color="#53A8A4"/>
<stop offset="0.980392" stop-color="#5392A9"/>
<stop offset="1" stop-color="#0057BC"/>
</linearGradient>
<linearGradient id="paint2_linear_330_172" x1="56.7713" y1="5.2762" x2="69.7627" y2="4.54344" gradientUnits="userSpaceOnUse">
<stop stop-color="#53A3A5"/>
<stop offset="0.980392" stop-color="#5392A9"/>
<stop offset="1" stop-color="#00389B"/>
</linearGradient>
<linearGradient id="paint3_linear_330_172" x1="59.9148" y1="4.05106" x2="68.2596" y2="4.08678" gradientUnits="userSpaceOnUse">
<stop stop-color="#5391A9"/>
<stop offset="1" stop-color="#53A7A5"/>
</linearGradient>
<linearGradient id="paint4_linear_330_172" x1="60.368" y1="10.5372" x2="54.2308" y2="2.69023" gradientUnits="userSpaceOnUse">
<stop stop-color="#EE8439"/>
<stop offset="1" stop-color="#B1825E"/>
</linearGradient>
<linearGradient id="paint5_linear_330_172" x1="68.0104" y1="10.3475" x2="58.3255" y2="10.3065" gradientUnits="userSpaceOnUse">
<stop stop-color="#F18B39"/>
<stop offset="1" stop-color="#998C70"/>
</linearGradient>
<linearGradient id="paint6_linear_330_172" x1="69.2264" y1="8.24743" x2="56.2351" y2="8.9802" gradientUnits="userSpaceOnUse">
<stop stop-color="#E56C36"/>
<stop offset="0.980392" stop-color="#B1825E"/>
<stop offset="1" stop-color="#007C68"/>
</linearGradient>
<linearGradient id="paint7_linear_330_172" x1="66.0832" y1="9.47265" x2="57.7381" y2="9.43686" gradientUnits="userSpaceOnUse">
<stop stop-color="#F08939"/>
<stop offset="1" stop-color="#B3815C"/>
</linearGradient>
<clipPath id="clip0_330_172">
<rect width="139" height="30.2717" fill="white"/>
</clipPath>
</defs>
</svg>
