<svg width="24" height="24" viewBox="0 0 24 24" fill="none" xmlns="http://www.w3.org/2000/svg">
<rect width="24" height="24" rx="12" fill="white"/>
<path fill-rule="evenodd" clip-rule="evenodd" d="M21.9995 12.02C21.9995 12.02 20.6337 9.77327 17.2821 8.1754C14.9349 7.05665 12.6247 7.13401 11.3177 7.42264C9.25632 7.87695 7.53491 8.88774 7.53491 8.88774C7.53491 8.88774 7.7306 9.69188 8.87763 9.44827C10.1707 9.17349 12.6587 8.07495 14.9828 9.00147C16.314 9.53197 16.7839 11.5795 14.0534 11.2026C13.0137 11.0894 12.265 11.6661 12.474 12.2936C12.5675 12.5724 12.8175 12.2786 13.8369 12.4835C14.0921 12.5349 15.5745 12.9482 15.8799 13.04C16.7169 13.29 17.1574 13.462 18.2282 13.2796C20.0379 12.9713 21.0672 11.8301 22.0001 12.0206L21.9995 12.02Z" fill="url(#paint0_linear_13_2)"/>
<path fill-rule="evenodd" clip-rule="evenodd" d="M15.3025 9.44826C15.1824 9.35417 15.0445 9.27219 14.8955 9.21043C14.3171 8.97028 13.6977 8.85195 13.0015 8.84848C11.8412 8.84329 10.7352 9.16425 9.84618 9.42286C9.49405 9.52504 9.19041 9.61336 8.92429 9.66993C8.76207 9.70457 8.60737 9.72131 8.46421 9.72073C8.46247 9.72073 8.46017 9.72073 8.45844 9.72073C8.57389 9.92624 8.89485 10.2992 9.68397 10.1987C10.8119 10.0555 11.9134 9.52561 13.4755 9.37899C14.1087 9.31953 14.7489 9.36629 15.3031 9.44826H15.3025Z" fill="url(#paint1_linear_13_2)"/>
<path fill-rule="evenodd" clip-rule="evenodd" d="M14.7865 10.1098C14.241 10.1075 13.7342 10.1641 13.5425 10.2005C13.0899 10.2859 12.6662 10.4239 12.2564 10.5566C11.7951 10.7067 11.3593 10.8481 10.9206 10.9041C11.0591 11.0871 11.3564 11.3163 11.955 11.2407C12.8919 11.1218 13.8525 10.1912 15.7032 10.4273C15.7315 10.3829 15.7511 10.3361 15.7615 10.2865C15.7673 10.2593 15.769 10.2311 15.769 10.2028C15.5058 10.1445 15.1727 10.1121 14.7865 10.1104V10.1098Z" fill="url(#paint2_linear_13_2)"/>
<path fill-rule="evenodd" clip-rule="evenodd" d="M14.0989 9.57815C13.891 9.577 13.6878 9.58565 13.4962 9.60413C12.6338 9.68494 11.926 9.88237 11.242 10.0734C10.753 10.2097 10.2895 10.3384 9.81958 10.4077C10.002 10.5843 10.3264 10.7523 10.8869 10.6813C11.6893 10.5797 12.5235 10.1635 13.5008 9.97877C13.8085 9.92047 14.9088 9.80906 15.7187 9.96088C15.6858 9.88179 15.6379 9.80155 15.5784 9.72362C15.1408 9.64454 14.6271 9.58104 14.0994 9.57873L14.0989 9.57815Z" fill="url(#paint3_linear_13_2)"/>
<path fill-rule="evenodd" clip-rule="evenodd" d="M2.00057 12.0142C2.00057 12.0142 3.36639 14.2609 6.71858 15.8588C9.06574 16.9776 11.376 16.9002 12.6829 16.6116C14.7443 16.1573 16.4663 15.1459 16.4663 15.1459C16.4663 15.1459 16.2706 14.3418 15.123 14.5854C13.8299 14.8601 11.3419 15.9581 9.01783 15.0322C7.68665 14.5017 7.21676 12.4541 9.94723 12.831C10.9869 12.9442 11.7356 12.3675 11.5261 11.7406C11.4331 11.4618 11.1826 11.7556 10.1631 11.5507C9.90797 11.4993 8.42555 11.086 8.12018 10.9942C7.28314 10.7437 6.84269 10.5722 5.77186 10.7546C3.96213 11.0629 2.93286 12.2047 2 12.0136L2.00057 12.0142Z" fill="url(#paint4_linear_13_2)"/>
<path fill-rule="evenodd" clip-rule="evenodd" d="M8.69748 14.5859C8.81755 14.68 8.95552 14.762 9.10446 14.8243C9.68288 15.0645 10.3023 15.1828 10.9985 15.1857C12.1588 15.1909 13.2648 14.8699 14.1538 14.6119C14.5059 14.5097 14.8096 14.4214 15.0757 14.3648C15.2379 14.3302 15.3926 14.3135 15.5358 14.314C15.5381 14.314 15.5398 14.314 15.5421 14.314C15.4267 14.1085 15.1057 13.7356 14.3166 13.8355C13.1886 13.9786 12.0872 14.5086 10.5251 14.6552C9.89185 14.7147 9.25166 14.6679 8.69748 14.5859Z" fill="url(#paint5_linear_13_2)"/>
<path fill-rule="evenodd" clip-rule="evenodd" d="M9.21355 13.9244C9.75907 13.9267 10.2659 13.8701 10.4576 13.8343C10.9101 13.7489 11.3339 13.6109 11.7437 13.4776C12.205 13.3281 12.6408 13.1867 13.0795 13.1301C12.941 12.9471 12.6437 12.7179 12.045 12.7941C11.1081 12.913 10.1476 13.8436 8.29685 13.6075C8.26857 13.6519 8.24837 13.6987 8.23855 13.7483C8.23278 13.7755 8.23105 13.8038 8.23105 13.832C8.49428 13.8903 8.82736 13.9227 9.21355 13.9244Z" fill="url(#paint6_linear_13_2)"/>
<path fill-rule="evenodd" clip-rule="evenodd" d="M9.90109 14.4561C10.1089 14.4572 10.3121 14.4486 10.5038 14.4301C11.3662 14.3493 12.0739 14.1518 12.758 13.9608C13.2469 13.8245 13.7105 13.6958 14.1804 13.6265C13.998 13.4499 13.6735 13.2819 13.113 13.3529C12.3106 13.4545 11.477 13.8707 10.4991 14.0554C10.1915 14.1137 9.09119 14.2251 8.28128 14.0733C8.31418 14.1524 8.3621 14.2327 8.42156 14.3106C8.85912 14.3897 9.37347 14.4537 9.90109 14.4561Z" fill="url(#paint7_linear_13_2)"/>
<defs>
<linearGradient id="paint0_linear_13_2" x1="13.8594" y1="9.34956" x2="18.1959" y2="14.8942" gradientUnits="userSpaceOnUse">
<stop stop-color="#53AAA4"/>
<stop offset="0.980392" stop-color="#538CAA"/>
<stop offset="1" stop-color="#0067E0"/>
</linearGradient>
<linearGradient id="paint1_linear_13_2" x1="8.45901" y1="9.48347" x2="15.3025" y2="9.51234" gradientUnits="userSpaceOnUse">
<stop stop-color="#53A8A4"/>
<stop offset="0.980392" stop-color="#5392A9"/>
<stop offset="1" stop-color="#0057BC"/>
</linearGradient>
<linearGradient id="paint2_linear_13_2" x1="7.59955" y1="10.9671" x2="16.7792" y2="10.4493" gradientUnits="userSpaceOnUse">
<stop stop-color="#53A3A5"/>
<stop offset="0.980392" stop-color="#5392A9"/>
<stop offset="1" stop-color="#00389B"/>
</linearGradient>
<linearGradient id="paint3_linear_13_2" x1="9.82073" y1="10.1012" x2="15.7169" y2="10.1266" gradientUnits="userSpaceOnUse">
<stop stop-color="#5391A9"/>
<stop offset="1" stop-color="#53A7A5"/>
</linearGradient>
<linearGradient id="paint4_linear_13_2" x1="10.1412" y1="14.6847" x2="5.80476" y2="9.14001" gradientUnits="userSpaceOnUse">
<stop stop-color="#EE8439"/>
<stop offset="1" stop-color="#B1825E"/>
</linearGradient>
<linearGradient id="paint5_linear_13_2" x1="15.541" y1="14.5501" x2="8.69806" y2="14.5213" gradientUnits="userSpaceOnUse">
<stop stop-color="#F18B39"/>
<stop offset="1" stop-color="#998C70"/>
</linearGradient>
<linearGradient id="paint6_linear_13_2" x1="16.4005" y1="13.0666" x2="7.22083" y2="13.5844" gradientUnits="userSpaceOnUse">
<stop stop-color="#E56C36"/>
<stop offset="0.980392" stop-color="#B1825E"/>
<stop offset="1" stop-color="#007C68"/>
</linearGradient>
<linearGradient id="paint7_linear_13_2" x1="14.1792" y1="13.9325" x2="8.28301" y2="13.9071" gradientUnits="userSpaceOnUse">
<stop stop-color="#F08939"/>
<stop offset="1" stop-color="#B3815C"/>
</linearGradient>
</defs>
</svg>
