<svg width="44" height="44" viewBox="0 0 44 44" fill="none" xmlns="http://www.w3.org/2000/svg">
<rect width="44" height="44" rx="22" fill="url(#paint0_linear_187_322)"/>
<path d="M25.7041 21.9999L17.2121 13.2729C17.1422 13.2026 17.0869 13.1191 17.0494 13.0273C17.012 12.9354 16.9932 12.8371 16.994 12.7379C16.9948 12.6387 17.0153 12.5407 17.0542 12.4495C17.0932 12.3583 17.1499 12.2758 17.2209 12.2066C17.292 12.1375 17.3761 12.0831 17.4683 12.0466C17.5605 12.0102 17.6591 11.9924 17.7582 11.9943C17.8574 11.9962 17.9552 12.0177 18.046 12.0576C18.1367 12.0976 18.2187 12.1551 18.2871 12.2269L27.2871 21.4769C27.4233 21.6169 27.4995 21.8046 27.4995 21.9999C27.4995 22.1953 27.4233 22.3829 27.2871 22.5229L18.2871 31.7729C18.2187 31.8447 18.1367 31.9023 18.046 31.9422C17.9552 31.9821 17.8574 32.0037 17.7582 32.0055C17.6591 32.0074 17.5605 31.9896 17.4683 31.9532C17.3761 31.9167 17.292 31.8624 17.2209 31.7932C17.1499 31.724 17.0932 31.6415 17.0542 31.5503C17.0153 31.4591 16.9948 31.3611 16.994 31.2619C16.9932 31.1627 17.012 31.0644 17.0494 30.9726C17.0869 30.8807 17.1422 30.7972 17.2121 30.7269L25.7041 21.9999Z" fill="white"/>
<defs>
<linearGradient id="paint0_linear_187_322" x1="-13.5" y1="-4.5" x2="77.5" y2="65.5" gradientUnits="userSpaceOnUse">
<stop stop-color="#3C9176"/>
<stop offset="1" stop-color="#3A7DE2" stop-opacity="0.5"/>
</linearGradient>
</defs>
</svg>
