<svg width="36" height="36" viewBox="0 0 36 36" fill="none" xmlns="http://www.w3.org/2000/svg">
<rect width="36" height="36" rx="8" fill="#A3B5DA"/>
<rect width="20" height="20" transform="translate(8 8)" fill="#A3B5DA"/>
<path d="M13.77 25.89V15.17H10.21V25.89H13.77ZM11.99 13.71C13.23 13.71 14.01 12.89 14.01 11.86C13.99 10.8 13.24 10 12.02 10C10.8 10 10 10.8 10 11.85C10 12.88 10.77 13.7 11.97 13.7H11.99V13.71Z" fill="white"/>
<path d="M15.75 25.8899H19.31V19.8999C19.31 19.5799 19.33 19.2599 19.43 19.0299C19.69 18.3899 20.27 17.7299 21.26 17.7299C22.55 17.7299 23.06 18.7099 23.06 20.1499V25.8899H26.62V19.7399C26.62 16.4499 24.86 14.9199 22.52 14.9199C20.6 14.9199 19.75 15.9899 19.28 16.7299H19.3V15.1699H15.75C15.79 16.1699 15.75 25.8899 15.75 25.8899Z" fill="white"/>
</svg>
