<svg width="20" height="20" viewBox="0 0 20 20" fill="none" xmlns="http://www.w3.org/2000/svg">
<path d="M1.17436 11.2137H18.399C19.0477 11.2137 19.5735 10.6229 19.5735 9.89364C19.5735 9.16461 19.0479 8.57373 18.399 8.57373H1.17436C0.525795 8.57391 0 9.16479 0 9.89382C0 10.6229 0.525795 11.2137 1.17436 11.2137Z" fill="white"/>
<path d="M11.64 18.3994L11.64 1.17475C11.64 0.526022 11.0491 0.000226758 10.3199 0.000226758C9.59088 0.000226758 9 0.525861 9 1.17475L9 18.3994C9.00018 19.0479 9.59106 19.5737 10.3201 19.5737C11.0491 19.5737 11.64 19.0479 11.64 18.3994Z" fill="white"/>
</svg>
